nColumns=19
nRows=153
DataType=double
version=3
OpenSimVersion=4.1
endheader
time	ground_force_calcn_r_vx	ground_force_calcn_r_vy	ground_force_calcn_r_vz	ground_force_calcn_r_px	ground_force_calcn_r_py	ground_force_calcn_r_pz	ground_force_calcn_r_mx	ground_force_calcn_r_my	ground_force_calcn_r_mz	ground_force_calcn_l_vx	ground_force_calcn_l_vy	ground_force_calcn_l_vz	ground_force_calcn_l_px	ground_force_calcn_l_py	ground_force_calcn_l_pz	ground_force_calcn_l_mx	ground_force_calcn_l_my	ground_force_calcn_l_mz
1.795	0	0	0	0	0	0	0	0	0	0	0	0	0	0	0	0	0	0
1.8	0	0	0	0	0	0	0	0	0	0	0	0	0	0	0	0	0	0
1.805	0	0	0	0	0	0	0	0	0	0	0	0	0	0	0	0	0	0
1.81	0	0	0	0	0	0	0	0	0	0	0	0	0	0	0	0	0	0
1.815	0	0	0	0	0	0	0	0	0	0	0	0	0	0	0	0	0	0
1.82	0	0	0	0	0	0	0	0	0	0	0	0	0	0	0	0	0	0
1.825	0	0	0	0	0	0	0	0	0	0	0	0	0	0	0	0	0	0
1.83	0	0	0	0	0	0	0	0	0	0	0	0	0	0	0	0	0	0
1.835	0	0	0	0	0	0	0	0	0	0	0	0	0	0	0	0	0	0
1.84	0	0	0	0	0	0	0	0	0	0	0	0	0	0	0	0	0	0
1.845	0	0	0	0	0	0	0	0	0	0	0	0	0	0	0	0	0	0
1.85	0	0	0	0	0	0	0	0	0	0	0	0	0	0	0	0	0	0
1.855	0	0	0	0	0	0	0	0	0	0	0	0	0	0	0	0	0	0
1.86	0	0	0	0	0	0	0	0	0	0	0	0	0	0	0	0	0	0
1.865	0	0	0	0	0	0	0	0	0	0	0	0	0	0	0	0	0	0
1.87	0	0	0	0	0	0	0	0	0	-38.5101	51.1778	-9.55681	1.30278	0	-0.305362	3.09013	-4.10661	0.766858
1.875	0	0	0	0	0	0	0	0	0	-83.0458	196.501	7.02678	1.14937	0	-0.395452	2.02208	-4.78459	-0.171095
1.88	0	0	0	0	0	0	0	0	0	-144.657	428.859	45.3082	1.10346	0	-0.396526	1.20976	-3.58655	-0.378912
1.885	0	0	0	0	0	0	0	0	0	-209.457	731.317	104.555	1.10174	0	-0.382797	-0.105556	0.368548	0.0526904
1.89	0	0	0	0	0	0	0	0	0	-252.427	1057.79	170.244	1.09815	0	-0.369613	-1.28328	5.37755	0.865481
1.895	0	0	0	0	0	0	0	0	0	-268.245	1378.11	209.647	1.0911	0	-0.357124	-0.536065	2.75404	0.418961
1.9	0	0	0	0	0	0	0	0	0	-289.226	1676.88	191.885	1.07688	0	-0.346592	2.23751	-12.9726	-1.48446
1.905	0	0	0	0	0	0	0	0	0	-335.965	1929.42	107.541	1.06115	0	-0.339552	5.17867	-29.7407	-1.65767
1.91	0	0	0	0	0	0	0	0	0	-396.112	2118.02	-21.6582	1.05202	0	-0.336751	6.00903	-32.1304	0.328556
1.915	0	0	0	0	0	0	0	0	0	-461.265	2256.27	-148.957	1.04519	0	-0.337675	4.02195	-19.6733	1.29881
1.92	0	0	0	0	0	0	0	0	0	-516.488	2369.36	-222.22	1.03452	0	-0.340054	0.359825	-1.65068	0.154815
1.925	0	0	0	0	0	0	0	0	0	-534.095	2471.39	-214.69	1.01849	0	-0.341426	-2.22599	10.3002	-0.894783
1.93	0	0	0	0	0	0	0	0	0	-508.417	2566.76	-137.177	0.993864	0	-0.340891	-1.96645	9.9277	-0.530571
1.935	0	0	0	0	0	0	0	0	0	-445.696	2647.86	-31.5291	0.961683	0	-0.339756	0.159659	-0.948528	0.0112945
1.94	0	0	0	0	0	0	0	0	0	-354.972	2703.42	53.922	0.927553	0	-0.339913	1.2704	-9.67524	-0.192981
1.945	0	0	0	0	0	0	0	0	0	-255.915	2730.59	91.4566	0.894058	0	-0.341635	0.534756	-5.7058	-0.191107
1.95	0	0	0	0	0	0	0	0	0	-162.798	2734.43	87.212	0.862511	0	-0.343288	-0.242911	4.08004	0.130129
1.955	0	0	0	0	0	0	0	0	0	-74.3888	2719.84	67.9346	0.833707	0	-0.34351	-0.184999	6.76402	0.168948
1.96	0	0	0	0	0	0	0	0	0	14.0537	2685.08	55.7251	0.806106	0	-0.34232	-0.00391733	-0.748439	-0.0155328
1.965	0	0	0	0	0	0	0	0	0	100.924	2623.15	54.9942	0.778157	0	-0.340718	-0.590467	-15.347	-0.321749
1.97	0	0	0	0	0	0	0	0	0	183.03	2532.09	53.4801	0.750382	0	-0.339447	-2.23451	-30.9129	-0.652909
1.975	0	0	0	0	0	0	0	0	0	256.07	2421.79	32.1804	0.724442	0	-0.338453	-4.25319	-40.2246	-0.534498
1.98	0	0	0	0	0	0	0	0	0	319.251	2302.27	-22.3076	0.702243	0	-0.337268	-4.99737	-36.0384	0.349191
1.985	0	0	0	0	0	0	0	0	0	373.838	2170.43	-107.147	0.683795	0	-0.335164	-1.80801	-10.4969	0.518198
1.99	0	0	0	0	0	0	0	0	0	419.333	2010.5	-200.24	0.666163	0	-0.331418	7.34498	35.2157	-3.50738
1.995	0	0	0	0	0	0	0	0	0	456.353	1806.6	-264.741	0.643996	0	-0.326104	20.5889	81.5072	-11.9441
2	0	0	0	0	0	0	0	0	0	482.823	1552.41	-264.782	0.607179	0	-0.320426	31.6666	101.817	-17.3661
2.005	0	0	0	0	0	0	0	0	0	492.739	1252.17	-188.408	0.541366	0	-0.31893	30.7532	78.1513	-11.759
2.01	0	0	0	0	0	0	0	0	0	478.953	924.328	-64.4268	0.436077	0	-0.337263	7.1223	13.7453	-0.958061
2.015	0	0	0	0	0	0	0	0	0	435.211	603.063	52.0393	0.307142	0	-0.409803	-38.5261	-53.3848	-4.60666
2.02	0	0	0	0	0	0	0	0	0	360.952	328.684	109.754	0.20408	0	-0.5619	-69.9493	-63.6961	-21.2693
2.025	0	0	0	0	0	0	0	0	0	265.771	132.933	91.5058	0.361408	0	-0.698869	-46.7267	-23.3717	-16.0882
2.03	0	0	0	0	0	0	0	0	0	170.522	18.6323	22.7865	0.390231	0	-0.562037	-4.05154	-0.442697	-0.541399
2.035	0	0	0	0	0	0	0	0	0	0	0	0	0	0	0	0	0	0
2.04	0	0	0	0	0	0	0	0	0	0	0	0	0	0	0	0	0	0
2.045	0	0	0	0	0	0	0	0	0	0	0	0	0	0	0	0	0	0
2.05	0	0	0	0	0	0	0	0	0	0	0	0	0	0	0	0	0	0
2.055	0	0	0	0	0	0	0	0	0	0	0	0	0	0	0	0	0	0
2.06	0	0	0	0	0	0	0	0	0	0	0	0	0	0	0	0	0	0
2.065	0	0	0	0	0	0	0	0	0	0	0	0	0	0	0	0	0	0
2.07	0	0	0	0	0	0	0	0	0	0	0	0	0	0	0	0	0	0
2.075	0	0	0	0	0	0	0	0	0	0	0	0	0	0	0	0	0	0
2.08	0	0	0	0	0	0	0	0	0	0	0	0	0	0	0	0	0	0
2.085	0	0	0	0	0	0	0	0	0	0	0	0	0	0	0	0	0	0
2.09	0	0	0	0	0	0	0	0	0	0	0	0	0	0	0	0	0	0
2.095	0	0	0	0	0	0	0	0	0	0	0	0	0	0	0	0	0	0
2.1	0	0	0	0	0	0	0	0	0	0	0	0	0	0	0	0	0	0
2.105	0	0	0	0	0	0	0	0	0	0	0	0	0	0	0	0	0	0
2.11	0	0	0	0	0	0	0	0	0	0	0	0	0	0	0	0	0	0
2.115	0	0	0	0	0	0	0	0	0	0	0	0	0	0	0	0	0	0
2.12	0	0	0	0	0	0	0	0	0	0	0	0	0	0	0	0	0	0
2.125	0	0	0	0	0	0	0	0	0	0	0	0	0	0	0	0	0	0
2.13	0	0	0	0	0	0	0	0	0	0	0	0	0	0	0	0	0	0
2.135	0	0	0	0	0	0	0	0	0	0	0	0	0	0	0	0	0	0
2.14	0	0	0	0	0	0	0	0	0	0	0	0	0	0	0	0	0	0
2.145	0	0	0	0	0	0	0	0	0	0	0	0	0	0	0	0	0	0
2.15	0	0	0	0	0	0	0	0	0	0	0	0	0	0	0	0	0	0
2.155	0	0	0	0	0	0	0	0	0	0	0	0	0	0	0	0	0	0
2.16	0	0	0	0	0	0	0	0	0	0	0	0	0	0	0	0	0	0
2.165	0	0	0	0	0	0	0	0	0	0	0	0	0	0	0	0	0	0
2.17	-40.0787	42.5722	-4.64119	1.26411	0	-0.259672	-0.11165	0.118596	-0.0129293	0	0	0	0	0	0	0	0	0
2.175	-87.299	177.962	-21.6318	1.15419	0	-0.240154	0.361383	-0.73669	0.0895471	0	0	0	0	0	0	0	0	0
2.18	-150.631	397.568	-60.628	1.09508	0	-0.241569	1.01953	-2.69089	0.410354	0	0	0	0	0	0	0	0	0
2.185	-211.066	690.551	-119.568	1.08328	0	-0.252867	1.66088	-5.43396	0.940881	0	0	0	0	0	0	0	0	0
2.19	-240.836	1031.97	-183.617	1.07001	0	-0.263814	1.39931	-5.996	1.06686	0	0	0	0	0	0	0	0	0
2.195	-233.145	1401.83	-227.912	1.05389	0	-0.273716	-0.335053	2.01457	-0.327532	0	0	0	0	0	0	0	0	0
2.2	-217.335	1763.88	-229.97	1.03437	0	-0.280746	-2.42169	19.6542	-2.56247	0	0	0	0	0	0	0	0	0
2.205	-231.181	2064.87	-181.68	1.01592	0	-0.284856	-3.92036	35.0162	-3.08093	0	0	0	0	0	0	0	0	0
2.21	-289.119	2271.98	-87.7902	1.00333	0	-0.286532	-4.85386	38.143	-1.47386	0	0	0	0	0	0	0	0	0
2.215	-375.471	2400.22	30.4566	0.995569	0	-0.286683	-5.05481	32.3131	0.410024	0	0	0	0	0	0	0	0	0
2.22	-453.154	2487.03	142.439	0.988117	0	-0.28602	-4.36261	23.9432	1.37129	0	0	0	0	0	0	0	0	0
2.225	-488.71	2560.12	217.634	0.975818	0	-0.285424	-2.83696	14.8615	1.26336	0	0	0	0	0	0	0	0	0
2.23	-467.282	2626.06	242.747	0.954765	0	-0.285245	-1.09506	6.15411	0.568872	0	0	0	0	0	0	0	0	0
2.235	-392.52	2677.78	220.604	0.92424	0	-0.285816	0.0130345	-0.0889218	-0.00732567	0	0	0	0	0	0	0	0	0
2.24	-284.948	2710.81	167.941	0.888247	0	-0.286969	0.246095	-2.34119	-0.145042	0	0	0	0	0	0	0	0	0
2.245	-173.04	2726.12	108.334	0.852942	0	-0.288211	0.0120832	-0.190361	-0.0075648	0	0	0	0	0	0	0	0	0
2.25	-75.1962	2719.48	61.2573	0.820866	0	-0.289092	-0.146359	5.29308	0.119229	0	0	0	0	0	0	0	0	0
2.255	12.8515	2688.93	33.8873	0.791385	0	-0.289653	0.0504303	10.5516	0.132977	0	0	0	0	0	0	0	0	0
2.26	103.446	2639.07	19.6621	0.764032	0	-0.289911	0.585418	14.935	0.111271	0	0	0	0	0	0	0	0	0
2.265	195.626	2567.94	5.35381	0.738435	0	-0.289963	1.66409	21.8442	0.0455422	0	0	0	0	0	0	0	0	0
2.27	278.866	2465.08	-12.5371	0.71382	0	-0.28975	3.65043	32.2686	-0.164115	0	0	0	0	0	0	0	0	0
2.275	343.912	2327.22	-22.7695	0.689937	0	-0.28914	6.4374	43.5612	-0.426204	0	0	0	0	0	0	0	0	0
2.28	390.832	2156.26	-9.28226	0.667071	0	-0.288028	8.7442	48.2427	-0.207675	0	0	0	0	0	0	0	0	0
2.285	422.909	1950.88	33.7622	0.643474	0	-0.287364	7.42619	34.257	0.592857	0	0	0	0	0	0	0	0	0
2.29	441.761	1707.4	93.9864	0.614622	0	-0.289272	-0.207724	-0.802851	-0.0441942	0	0	0	0	0	0	0	0	0
2.295	452.112	1427.64	148.736	0.574606	0	-0.295903	-13.4155	-42.3622	-4.41344	0	0	0	0	0	0	0	0	0
2.3	455.491	1128.21	175.682	0.516887	0	-0.309212	-28.0651	-69.5149	-10.8247	0	0	0	0	0	0	0	0	0
2.305	445.845	833.13	159.667	0.433263	0	-0.327397	-36.1886	-67.624	-12.96	0	0	0	0	0	0	0	0	0
2.31	412.512	566.793	97.3247	0.315594	0	-0.332517	-25.4686	-34.9939	-6.00885	0	0	0	0	0	0	0	0	0
2.315	351.189	352.874	8.40739	0.191564	0	-0.270504	9.18531	9.2294	0.219895	0	0	0	0	0	0	0	0	0
2.32	270.417	204.631	-67.2881	0.200582	0	-0.0989928	42.203	31.936	-10.5014	0	0	0	0	0	0	0	0	0
2.325	185.732	105.582	-89.5145	0.514849	0	0.099756	39.448	22.4248	-19.0122	0	0	0	0	0	0	0	0	0
2.33	110.647	39.6726	-53.2343	0.51232	0	0.145111	16.5312	5.92732	-7.9535	0	0	0	0	0	0	0	0	0
2.335	0	0	0	0	0	0	0	0	0	0	0	0	0	0	0	0	0	0
2.34	0	0	0	0	0	0	0	0	0	0	0	0	0	0	0	0	0	0
2.345	0	0	0	0	0	0	0	0	0	0	0	0	0	0	0	0	0	0
2.35	0	0	0	0	0	0	0	0	0	0	0	0	0	0	0	0	0	0
2.355	0	0	0	0	0	0	0	0	0	0	0	0	0	0	0	0	0	0
2.36	0	0	0	0	0	0	0	0	0	0	0	0	0	0	0	0	0	0
2.365	0	0	0	0	0	0	0	0	0	0	0	0	0	0	0	0	0	0
2.37	0	0	0	0	0	0	0	0	0	0	0	0	0	0	0	0	0	0
2.375	0	0	0	0	0	0	0	0	0	0	0	0	0	0	0	0	0	0
2.38	0	0	0	0	0	0	0	0	0	0	0	0	0	0	0	0	0	0
2.385	0	0	0	0	0	0	0	0	0	0	0	0	0	0	0	0	0	0
2.39	0	0	0	0	0	0	0	0	0	0	0	0	0	0	0	0	0	0
2.395	0	0	0	0	0	0	0	0	0	0	0	0	0	0	0	0	0	0
2.4	0	0	0	0	0	0	0	0	0	0	0	0	0	0	0	0	0	0
2.405	0	0	0	0	0	0	0	0	0	0	0	0	0	0	0	0	0	0
2.41	0	0	0	0	0	0	0	0	0	0	0	0	0	0	0	0	0	0
2.415	0	0	0	0	0	0	0	0	0	0	0	0	0	0	0	0	0	0
2.42	0	0	0	0	0	0	0	0	0	0	0	0	0	0	0	0	0	0
2.425	0	0	0	0	0	0	0	0	0	0	0	0	0	0	0	0	0	0
2.43	0	0	0	0	0	0	0	0	0	0	0	0	0	0	0	0	0	0
2.435	0	0	0	0	0	0	0	0	0	0	0	0	0	0	0	0	0	0
2.44	0	0	0	0	0	0	0	0	0	0	0	0	0	0	0	0	0	0
2.445	0	0	0	0	0	0	0	0	0	0	0	0	0	0	0	0	0	0
2.45	0	0	0	0	0	0	0	0	0	0	0	0	0	0	0	0	0	0
2.455	0	0	0	0	0	0	0	0	0	0	0	0	0	0	0	0	0	0
2.46	0	0	0	0	0	0	0	0	0	0	0	0	0	0	0	0	0	0
2.465	0	0	0	0	0	0	0	0	0	-35.5463	64.8025	-16.1181	1.27941	0	-0.341351	1.66835	-3.04148	0.756497
2.47	0	0	0	0	0	0	0	0	0	-90.6676	242.713	5.97677	1.06138	0	-0.426844	1.58644	-4.24682	-0.104577
2.475	0	0	0	0	0	0	0	0	0	-159.791	525.791	46.9355	1.05799	0	-0.404963	0.814973	-2.68166	-0.239382
2.48	0	0	0	0	0	0	0	0	0	-222.449	893.904	110.172	1.05215	0	-0.387907	-0.162634	0.65354	0.0805472
2.485	0	0	0	0	0	0	0	0	0	-258.139	1296.86	185.053	1.04841	0	-0.3723	-0.397605	1.99753	0.285033
2.49	0	0	0	0	0	0	0	0	0	-275.01	1692.83	240.195	1.04507	0	-0.358621	0.971806	-5.98196	-0.84878
2.495	0	0	0	0	0	0	0	0	0	-310.456	2039.02	242.096	1.03858	0	-0.347148	3.66454	-24.0681	-2.85764
2.5	0	0	0	0	0	0	0	0	0	-372.622	2285.38	166.441	1.03366	0	-0.339055	6.56829	-40.2849	-2.9339
2.505	0	0	0	0	0	0	0	0	0	-445.602	2423.68	23.1	1.03188	0	-0.33547	8.13207	-44.2314	-0.421567
2.51	0	0	0	0	0	0	0	0	0	-519.937	2498.13	-135.672	1.0255	0	-0.336443	6.67267	-32.0601	1.74117
2.515	0	0	0	0	0	0	0	0	0	-562.171	2552.86	-243.476	1.01257	0	-0.340202	1.6351	-7.42511	0.708161
2.52	0	0	0	0	0	0	0	0	0	-547.657	2613.12	-259.957	0.993252	0	-0.343151	-3.09036	14.7455	-1.4669
2.525	0	0	0	0	0	0	0	0	0	-492.038	2682.45	-190.166	0.964342	0	-0.343302	-3.77897	20.6019	-1.46052
2.53	0	0	0	0	0	0	0	0	0	-411.173	2737.46	-75.4148	0.9293	0	-0.341946	-1.60818	10.7067	-0.294961
2.535	0	0	0	0	0	0	0	0	0	-315.666	2758.15	31.0143	0.894112	0	-0.341502	0.00949959	-0.0830033	-0.000933338
2.54	0	0	0	0	0	0	0	0	0	-220.136	2743.68	96.0089	0.859625	0	-0.342453	0.205659	-2.56325	-0.089695
2.545	0	0	0	0	0	0	0	0	0	-131.16	2702.84	117.582	0.826295	0	-0.343539	0.133271	-2.74634	-0.119475
2.55	0	0	0	0	0	0	0	0	0	-44.0708	2650.09	116.366	0.796548	0	-0.34335	0.148298	-8.91752	-0.39157
2.555	0	0	0	0	0	0	0	0	0	38.7723	2592.12	112.173	0.770265	0	-0.341763	-0.330307	-22.0826	-0.955617
